<svg xmlns="http://www.w3.org/2000/svg" version="1.1" xmlns:xlink="http://www.w3.org/1999/xlink" xmlns:svgjs="http://svgjs.dev/svgjs" width="2000" height="1500" viewBox="0 0 2000 1500"><rect width="2000" height="1500" fill="#efefef"></rect><g transform="matrix(0.75,0,0,0.75,249.090909090909,282.7536437246963)"><svg viewBox="0 0 396 247" data-background-color="#efefef" preserveAspectRatio="xMidYMid meet" height="1247" width="2000" xmlns="http://www.w3.org/2000/svg" xmlns:xlink="http://www.w3.org/1999/xlink"><g id="tight-bounds" transform="matrix(1,0,0,1,0.2400000000000091,-0.09999999999999432)"><svg viewBox="0 0 395.52 247.2" height="247.2" width="395.52"><g><svg></svg></g><g><svg viewBox="0 0 395.52 247.2" height="247.2" width="395.52"><g transform="matrix(1,0,0,1,70.28159706814598,37.08)"><svg viewBox="0 0 254.956805863708 173.04" height="173.04" width="254.956805863708"><g><svg viewBox="0 0 254.956805863708 173.04" height="173.04" width="254.956805863708"><g><svg viewBox="0 0 254.956805863708 173.04" height="173.04" width="254.956805863708"><g><svg viewBox="0 0 254.956805863708 173.04" height="173.04" width="254.956805863708"><g id="textblocktransform"><svg viewBox="0 0 254.956805863708 173.04" height="173.04" width="254.956805863708" id="textblock"><g><svg viewBox="0 0 254.956805863708 173.04" height="173.04" width="254.956805863708"><g transform="matrix(1,0,0,1,0,0)"><svg width="254.956805863708" viewBox="3.05 -39.05 57.904545422625 39.3" height="173.04" data-palette-color="#d94e28"><path d="M16.95 0.25L16.95 0.25Q13 0.25 9.85-1.58 6.7-3.4 4.88-6.55 3.05-9.7 3.05-13.7L3.05-13.7Q3.05-17.65 4.83-20.8 6.6-23.95 9.65-25.78 12.7-27.6 16.55-27.6L16.55-27.6Q19.9-27.6 22.6-26.18 25.3-24.75 26.95-22.4L26.95-22.4 26.95-37.1Q26.95-38 27.5-38.53 28.05-39.05 28.9-39.05L28.9-39.05Q29.75-39.05 30.3-38.53 30.85-38 30.85-37.1L30.85-37.1 30.85-13.5Q30.75-9.6 28.93-6.48 27.1-3.35 23.98-1.55 20.85 0.25 16.95 0.25ZM16.95-3.25L16.95-3.25Q19.85-3.25 22.13-4.63 24.4-6 25.73-8.35 27.05-10.7 27.05-13.7L27.05-13.7Q27.05-16.65 25.73-19.03 24.4-21.4 22.13-22.75 19.85-24.1 16.95-24.1L16.95-24.1Q14.1-24.1 11.8-22.75 9.5-21.4 8.15-19.03 6.8-16.65 6.8-13.7L6.8-13.7Q6.8-10.7 8.15-8.35 9.5-6 11.8-4.63 14.1-3.25 16.95-3.25ZM60.1-24.6L43-9.15 40.65-11.7 57.75-27.15Q58.35-27.7 59-27.68 59.65-27.65 60.2-27.05L60.2-27.05Q60.75-26.45 60.72-25.78 60.7-25.1 60.1-24.6L60.1-24.6ZM41.75 0L41.75 0Q40.9 0 40.37-0.53 39.85-1.05 39.85-1.9L39.85-1.9 39.85-37.15Q39.85-38 40.37-38.53 40.9-39.05 41.75-39.05L41.75-39.05Q42.6-39.05 43.12-38.53 43.65-38 43.65-37.15L43.65-37.15 43.65-1.9Q43.65-1.05 43.12-0.53 42.6 0 41.75 0ZM60.25-0.25L60.25-0.25Q59.6 0.3 58.9 0.23 58.2 0.15 57.7-0.5L57.7-0.5 46.55-14.2 49.25-16.6 60.5-2.75Q61-2.15 60.95-1.48 60.9-0.8 60.25-0.25Z" opacity="1" transform="matrix(1,0,0,1,0,0)" fill="#d94e28" class="wordmark-text-0" data-fill-palette-color="primary" id="text-0"></path></svg></g></svg></g></svg></g></svg></g></svg></g></svg></g></svg></g><g><path d="M0 247.2v-247.2h395.52v247.2zM379.915 231.595v-215.99h-364.31v215.99z" fill="#d94e28" fill-rule="nonzero" stroke="none" stroke-width="1" stroke-linecap="butt" stroke-linejoin="miter" stroke-miterlimit="10" stroke-dasharray="" stroke-dashoffset="0" font-family="none" font-weight="none" font-size="none" text-anchor="none" style="mix-blend-mode: normal" data-fill-palette-color="tertiary"></path></g></svg></g><defs></defs></svg><rect width="395.52" height="247.2" fill="none" stroke="none" visibility="hidden"></rect></g></svg></g></svg>